<svg width="76" height="75" viewBox="0 0 76 75" fill="none" xmlns="http://www.w3.org/2000/svg">
<path d="M67.2911 52.125C65.6739 55.7168 64.8946 57.3223 62.8145 60.4922C59.9024 64.9219 55.795 70.4531 50.7208 70.4883C46.2032 70.5293 45.0372 67.541 38.9024 67.5938C32.7735 67.623 31.4962 70.5469 26.9727 70.5C21.8927 70.4531 18.0079 65.4727 15.0958 61.0488C6.95126 48.6445 6.08994 34.1016 11.1231 26.3672C14.6856 20.8828 20.3165 17.6602 25.6075 17.6602C30.9981 17.6602 34.3849 20.6191 38.838 20.6191C43.1622 20.6191 45.7931 17.6543 52.0274 17.6543C56.7384 17.6543 61.7188 20.2207 65.2813 24.6504C53.6329 31.0371 55.5255 47.6719 67.2911 52.125ZM47.2931 12.7031C49.5606 9.79102 51.2833 5.68359 50.6563 1.5C46.9591 1.75195 42.6349 4.11328 40.1095 7.17188C37.8185 9.96094 35.92 14.0977 36.6583 18.0996C40.6954 18.2285 44.8731 15.8203 47.2931 12.7031Z" fill="black"/>
</svg>
