<svg width="41" height="41" viewBox="0 0 41 41" fill="none" xmlns="http://www.w3.org/2000/svg">
<path d="M25.5302 36.0347V5.97467C25.5302 5.42239 25.0825 4.97467 24.5302 4.97467H16.1773C15.625 4.97467 15.1773 5.42239 15.1773 5.97467V36.0347M25.5302 36.0347L25.5273 17.6907C25.5272 17.1383 25.9749 16.6905 26.5273 16.6905H34.88C35.4323 16.6905 35.88 17.1382 35.88 17.6905V35.0347C35.88 35.587 35.4323 36.0347 34.88 36.0347H25.5302ZM25.5302 36.0347H15.1773M15.1773 36.0347V26.7816C15.1773 26.2293 14.7296 25.7816 14.1773 25.7816H6.12001C5.56772 25.7816 5.12001 26.2293 5.12001 26.7816V35.0347C5.12001 35.587 5.56772 36.0347 6.12001 36.0347H15.1773Z" stroke="black" stroke-width="2" stroke-linecap="round" stroke-linejoin="round"/>
</svg>
